# xmcd CD database file
#
# Track frame offsets:
#	150
#	21765
#	44147
#	66122
#	87995
#	110825
#	132872
#	152132
#	174885
#	193097
#
# Disc length: 2881 seconds
#
# Revision: 1
# Processed by: cddbd v1.5PL3 Copyright (c) Steve Scherf et al.
# Submitted via: CDex 1.50beta10
#
DISCID=890b3f0a
DTITLE=HOUND DOG - Big Dipper
DYEAR=2002
DGENRE=R&B
TTITLE0=My Name 〜A Dice joint-Memphis Trail Mix〜
TTITLE1=MY HEART MY LOVE
TTITLE2=POPCORN
TTITLE3=One From The Heart
TTITLE4=Wonderful World
TTITLE5=悲しみも抱きしめよう
TTITLE6=愚か者よ
TTITLE7=男と女
TTITLE8=胸いっぱいの愛
TTITLE9=POPCORN 〜Lost Highway Mix〜
EXTD=YEAR: 2002
EXTT0=
EXTT1=
EXTT2=
EXTT3=
EXTT4=
EXTT5=
EXTT6=
EXTT7=
EXTT8=
EXTT9=
PLAYORDER=
